<mxfile host="app.diagrams.net" modified="2020-08-24T15:28:15.659Z" agent="5.0 (X11; Linux x86_64) AppleWebKit/537.36 (KHTML, like Gecko) Chrome/84.0.4147.135 Safari/537.36" etag="ZrEo_mWJBZhSJb6EVCrg" version="13.6.4" type="github">
  <diagram id="kFwCsk3lCMkMwyFpuh-D" name="MainPage">
    <mxGraphModel dx="1035" dy="626" grid="1" gridSize="10" guides="1" tooltips="1" connect="1" arrows="1" fold="1" page="1" pageScale="1" pageWidth="850" pageHeight="1100" math="0" shadow="0">
      <root>
        <mxCell id="0" />
        <mxCell id="1" parent="0" />
        <mxCell id="tPzjWJFe2uieOgI8eTaY-1" value="Global cases" style="rounded=0;whiteSpace=wrap;html=1;" vertex="1" parent="1">
          <mxGeometry x="20" y="20" width="120" height="60" as="geometry" />
        </mxCell>
        <mxCell id="tPzjWJFe2uieOgI8eTaY-2" value="Cases by Country" style="rounded=0;whiteSpace=wrap;html=1;align=center;" vertex="1" parent="1">
          <mxGeometry x="20" y="260" width="120" height="460" as="geometry" />
        </mxCell>
        <mxCell id="tPzjWJFe2uieOgI8eTaY-4" value="Blobal deaths/revovers in&amp;nbsp; county" style="rounded=0;whiteSpace=wrap;html=1;" vertex="1" parent="1">
          <mxGeometry x="650" y="80" width="190" height="450" as="geometry" />
        </mxCell>
        <mxCell id="tPzjWJFe2uieOgI8eTaY-5" value="" style="rounded=0;whiteSpace=wrap;html=1;" vertex="1" parent="1">
          <mxGeometry x="160" y="20" width="470" height="700" as="geometry" />
        </mxCell>
        <mxCell id="tPzjWJFe2uieOgI8eTaY-7" value="daily cases overal" style="rounded=0;whiteSpace=wrap;html=1;" vertex="1" parent="1">
          <mxGeometry x="650" y="550" width="190" height="170" as="geometry" />
        </mxCell>
        <mxCell id="tPzjWJFe2uieOgI8eTaY-8" value="" style="shape=image;html=1;verticalAlign=top;verticalLabelPosition=bottom;labelBackgroundColor=#ffffff;imageAspect=0;aspect=fixed;image=https://cdn4.iconfinder.com/data/icons/small-n-flat/24/map-128.png" vertex="1" parent="1">
          <mxGeometry x="320" y="300" width="128" height="128" as="geometry" />
        </mxCell>
        <mxCell id="tPzjWJFe2uieOgI8eTaY-9" value="Global recovers" style="rounded=0;whiteSpace=wrap;html=1;" vertex="1" parent="1">
          <mxGeometry x="20" y="100" width="120" height="60" as="geometry" />
        </mxCell>
        <mxCell id="tPzjWJFe2uieOgI8eTaY-10" value="Global deadths" style="rounded=0;whiteSpace=wrap;html=1;" vertex="1" parent="1">
          <mxGeometry x="20" y="180" width="120" height="60" as="geometry" />
        </mxCell>
        <mxCell id="tPzjWJFe2uieOgI8eTaY-12" value="Dropdown menu with countries" style="rounded=0;whiteSpace=wrap;html=1;" vertex="1" parent="1">
          <mxGeometry x="650" y="20" width="190" height="50" as="geometry" />
        </mxCell>
      </root>
    </mxGraphModel>
  </diagram>
</mxfile>
